<svg xmlns="http://www.w3.org/2000/svg" fill='#fff' height="48" viewBox="0 -960 960 960" width="48"><path d="m480-395 38 29q14 10 25.5 1t7.5-25l-15-48 46-36q12-10 7.333-24-4.666-14-20.333-14h-51l-18-53q-4-15-20-15t-20 15l-18 53h-52q-16.478 0-21.239 14Q364-484 376-474l46 36-15 50q-4 15 8 24t25 0l40-31ZM186-182q-37 0-61.5-24.5T100-268v-93q0-7.593 3.5-14.296Q107-382 114-385.2q30-15.8 49-37.3 19-21.5 19-57.5t-19-58.5q-19-22.5-49-38.3-7-3.2-10.5-9.904Q100-593.407 100-601v-93q0-37 24.5-61.5T186-780h590q37 0 61.5 24.5T862-694v93q0 7.593-3.5 14.296Q855-580 848-576.8q-30 15.8-49 38.3-19 22.5-19 58.5t19 57.5q19 21.5 49 37.3 7 3.2 10.5 9.904Q862-368.593 862-361v93q0 37-24.5 61.5T776-182H186Zm0-54h590q14 0 23-9t9-23v-72q-38-21-60-58.5t-22-81.852q0-44.352 22-82t60-60.003V-694q0-14-9-23t-23-9H186q-14 0-23 9t-9 23v72q37.925 22.463 59.962 59.732Q236-525 236-480.5t-22 82Q192-361 154-340v72q0 14 9 23t23 9Zm295-245Z"/></svg>